<?xml version="1.0" encoding="UTF-8"?>
<!-- Created with Inkscape (http://www.inkscape.org/) -->
<svg width="180" height="180" version="1.1" viewBox="0 0 180 180" xmlns="http://www.w3.org/2000/svg">
 <path d="m14.55 90c0-38.374 29.907-76.466 76.466-76.466 37.601 0 56.186 27.831 64.106 42.632h-23.505c-3.7367 0-6.7669 3.0296-6.7669 6.7669s3.0302 6.7669 6.7669 6.7669h40.601c3.7367 0 6.7669-3.0296 6.7669-6.7669v-40.601c0-3.7372-3.0302-6.7669-6.7669-6.7669-3.7367 0-6.7669 3.0296-6.7669 6.7669v24.54c-9.5346-16.808-31.589-46.871-74.437-46.871-54.986 0-90 45.141-90 90 0 44.859 35.014 90 90 90 26.307 0 48.211-10.41 63.806-26.278 8.3504-8.4964 14.871-18.533 19.316-29.338 1.4224-3.4558-0.22601-7.4104-3.6812-8.8327-3.4566-1.4224-7.4112 0.22628-8.8335 3.6822-3.8003 9.2349-9.3654 17.788-16.454 25.001-13.152 13.383-31.618 22.231-54.153 22.231-46.559 0-76.466-38.092-76.466-76.466z" clip-rule="evenodd" fill="currentColor" fill-rule="evenodd" stroke-width="13.534"/>
</svg>
